<?xml version="1.0" encoding="UTF-8" standalone="no"?>
<svg
   version="1.1"
   viewBox="-5 -10 110 100"
   id="svg7"
   sodipodi:docname="dice_5.svg"
   width="110"
   height="100"
   inkscape:version="1.4.4 (dcaf3e7d9e, 2026-05-05)"
   xmlns:inkscape="http://www.inkscape.org/namespaces/inkscape"
   xmlns:sodipodi="http://sodipodi.sourceforge.net/DTD/sodipodi-0.dtd"
   xmlns="http://www.w3.org/2000/svg"
   xmlns:svg="http://www.w3.org/2000/svg">
  <defs
     id="defs7" />
  <sodipodi:namedview
     id="namedview7"
     pagecolor="#ffffff"
     bordercolor="#000000"
     borderopacity="0.25"
     inkscape:showpageshadow="2"
     inkscape:pageopacity="0.0"
     inkscape:pagecheckerboard="0"
     inkscape:deskcolor="#d1d1d1"
     inkscape:zoom="8.6444444"
     inkscape:cx="54.948586"
     inkscape:cy="45.289203"
     inkscape:window-width="3440"
     inkscape:window-height="1376"
     inkscape:window-x="0"
     inkscape:window-y="0"
     inkscape:window-maximized="1"
     inkscape:current-layer="svg7" />
  <g
     id="g6"
     transform="translate(0.23136247,-9.3701799)">
    <path
       d="M 81,10 H 19 c -5,0 -9,4.1016 -9,9 v 62 c 0,5 4.1016,9 9,9 h 62 c 5,0 9,-4.1016 9,-9 V 19 c 0,-4.8984 -4.1016,-9 -9,-9 z m 6.3984,71 c 0,3.6016 -2.8984,6.5 -6.5,6.5 h -61.898 c -3.6016,0 -6.5,-2.8984 -6.5,-6.5 V 19 c 0,-3.6016 2.8984,-6.5 6.5,-6.5 h 62 c 3.6016,0 6.5,2.8984 6.5,6.5 v 62 z"
       id="path1" />
    <path
       d="m 29.199,22.398 c -3.8008,0 -6.8984,3.1016 -6.8984,6.8984 0,3.8008 3.1016,6.8984 6.8984,6.8984 3.8008,0 6.8984,-3.1016 6.8984,-6.8984 C 36.1013,25.398 32.9997,22.398 29.199,22.398 Z m 0,11.102 c -2.3984,0 -4.3008,-1.8984 -4.3008,-4.3008 0,-2.3984 1.8984,-4.3008 4.3008,-4.3008 2.3984,0 4.3008,1.8984 4.3008,4.3008 0,2.4023 -1.8984,4.3008 -4.3008,4.3008 z"
       id="path2" />
    <path
       d="m 70.801,22.398 c -3.8008,0 -6.8984,3.1016 -6.8984,6.8984 0,3.8008 3.1016,6.8984 6.8984,6.8984 3.8008,0 6.8984,-3.1016 6.8984,-6.8984 C 77.601743,25.398 74.6017,22.398 70.801,22.398 Z m 0,11.102 c -2.3984,0 -4.3008,-1.8984 -4.3008,-4.3008 0,-2.3984 1.8984,-4.3008 4.3008,-4.3008 2.3984,0 4.3008,1.8984 4.3008,4.3008 0,2.4023 -2,4.3008 -4.3008,4.3008 z"
       id="path3" />
    <path
       d="m 50,43.102 c -3.8008,0 -6.8984,3.1016 -6.8984,6.8984 0,3.8008 3.1016,6.8984 6.8984,6.8984 3.8008,0 6.8984,-3.1016 6.8984,-6.8984 0,-3.8008 -3.0977,-6.8984 -6.8984,-6.8984 z m 0,11.199 c -2.3984,0 -4.3008,-1.8984 -4.3008,-4.3008 0,-2.3984 1.8984,-4.3008 4.3008,-4.3008 2.3984,0 4.3008,1.8984 4.3008,4.3008 0,2.3984 -1.9023,4.3008 -4.3008,4.3008 z"
       id="path4" />
    <path
       d="m 29.199,63.898 c -3.8008,0 -6.8984,3.1016 -6.8984,6.8984 0,3.8008 3.1016,6.8984 6.8984,6.8984 3.8008,0 6.8984,-3.1016 6.8984,-6.8984 0.0039,-3.7969 -3.0977,-6.8984 -6.8984,-6.8984 z m 0,11.203 c -2.3984,0 -4.3008,-1.8984 -4.3008,-4.3008 0,-2.3984 1.8984,-4.3008 4.3008,-4.3008 2.3984,0 4.3008,1.8984 4.3008,4.3008 0,2.3984 -1.8984,4.3008 -4.3008,4.3008 z"
       id="path5" />
    <path
       d="m 70.801,63.898 c -3.8008,0 -6.8984,3.1016 -6.8984,6.8984 0,3.8008 3.1016,6.8984 6.8984,6.8984 3.8008,0 6.8984,-3.1016 6.8984,-6.8984 0,-3.7968 -3.0977,-6.8984 -6.8984,-6.8984 z m 0,11.203 c -2.3984,0 -4.3008,-1.8984 -4.3008,-4.3008 0,-2.3984 1.8984,-4.3008 4.3008,-4.3008 2.3984,0 4.3008,1.8984 4.3008,4.3008 0,2.3984 -2,4.3008 -4.3008,4.3008 z"
       id="path6" />
  </g>
</svg>
